<svg version="1.1" xmlns="http://www.w3.org/2000/svg" viewBox="0 0 100 100">
<g id="petal-logo">
	<path fill="#F05A67" d="M87.4,18.1C83.6,8.7,71.9,5.6,64,11.9c-4.5,3.5-9.3,7.9-14,13.1c6.2,7.1,11.7,15.9,14.3,25.9
		c6.2,22.8-9.6,48.4-9.9,49c0.2-0.1,0.4-0.2,0.6-0.4c10.5-6.7,31.2-10.3,37.4-33.4C97.1,48.7,92.3,30.7,87.4,18.1z"/>
	<path fill="#F48791" d="M62.1,11.4c-6-8.2-18.2-8.2-24.2,0c-0.3,0.3-0.6,0.8-0.9,1.2c-0.3-0.2-0.6-0.5-0.9-0.7
		c-7.9-6.3-19.6-3.2-23.4,6.3c-5,12.5-9.7,30.5-5,48C13.8,89.2,34.5,92.9,45,99.5l0.6,0.4c-0.1-0.1-16.2-25.9-9.9-49
		c2.7-10,8.1-18.6,14.3-25.8c0,0,0,0,0.1,0.1c6.2,7.1,11.7,15.7,14.3,25.9c6.2,22.9-9.7,48.5-9.9,49c0.2-0.1,0.4-0.2,0.6-0.4
		c0,0,0.1,0,0.1-0.1c8.4-9.2,24.2-19.3,24.2-43.1C79.3,38.4,70.2,22.2,62.1,11.4z"/>
	<path fill="#F8B3B9" d="M35.7,50.9C38.4,40.9,43.8,32.2,50,25c-4.3-4.8-8.8-9.1-13-12.4C29.2,23.4,20.7,39,20.7,56.4
		c0,23.8,15.9,33.8,24.2,43.1c0,0,0.1,0,0.1,0.1l0.6,0.4C45.6,99.8,29.4,74,35.7,50.9z"/>
</g>
</svg>
