<svg version="1.1" xmlns="http://www.w3.org/2000/svg" viewBox="0 0 100 100">
<g id="petal-logo">
    <path fill="#F05A67" d="M87.1,18.8c-3.8-9.4-15.3-12.5-23.3-6.2c-4.5,3.5-9.3,7.9-13.8,13.1c6.1,7.1,11.6,15.7,14.3,25.7C70.3,74.1,54.2,100,54.2,100l0.9-0.4c10.4-6.6,30.8-10.2,37-33.1C96.7,49.1,92.1,31.2,87.1,18.8z"/>
    <path fill="#F48791" d="M50,25.7c6.1,7.1,11.6,15.7,14.3,25.7C70.4,74.2,54.2,100,54.2,100l0.9-0.4c8.4-9.2,24.1-19.1,24.1-42.8c0-18-9.1-34-17.1-44.7C56,4,44,4,38,12c-0.3,0.4-0.6,0.8-0.9,1.3c0,0,0,0,0,0c-0.3-0.2-0.6-0.5-0.9-0.7c-7.9-6.2-19.5-3.1-23.3,6.2c-5,12.4-9.6,30.3-4.9,47.6c6.1,22.9,26.6,26.5,37,33.1l0.9,0.4c0,0-16.2-25.7-10.1-48.6C38.4,41.4,43.9,32.8,50,25.7z"/>
    <path fill="#F8B3B9" d="M35.7,51.4c2.7-10,8.1-18.6,14.3-25.7c-4.2-4.9-8.8-9-13-12.4C29.2,24,20.8,39.5,20.8,56.8c0,23.7,15.7,33.6,24.1,42.8l0.9,0.4C45.8,100,29.6,74.3,35.7,51.4z"/>
</g>
</svg>
