<?xml version="1.0" standalone="no"?>
<!DOCTYPE svg PUBLIC "-//W3C//DTD SVG 1.1//EN" "http://www.w3.org/Graphics/SVG/1.1/DTD/svg11.dtd" >
<svg xmlns="http://www.w3.org/2000/svg">
<metadata>Generated by IcoMoon</metadata>
<defs>
<font id="petalicon" horiz-adv-x="1024">
<font-face units-per-em="1024" ascent="832" descent="-192" />
<missing-glyph horiz-adv-x="1024" />
<glyph unicode="&#x20;" horiz-adv-x="512" d="" />
<glyph unicode="&#xe600;" glyph-name="align-center" d="M768 768v-384h-512v384h512zM0-128h1024v128h-1024v-128zM0 128h1024v128h-1024v-128z" />
<glyph unicode="&#xe601;" glyph-name="align-left" d="M1024 768v-128h-384v128h384zM512 768v-384h-512v384h512zM0-128h1024v128h-1024v-128zM640 512v-128h384v128h-384zM0 128h1024v128h-1024v-128z" />
<glyph unicode="&#xe602;" glyph-name="align-right" d="M384 768v-128h-384v128h384zM1024 768v-384h-512v384h512zM0-128h1024v128h-1024v-128zM0 512v-128h384v128h-384zM0 128h1024v128h-1024v-128z" />
<glyph unicode="&#xe603;" glyph-name="align-text-center" d="M1024 768v-128h-1024v128h1024zM192-128h640v128h-640v-128zM192 512v-128h640v128h-640zM0 128h1024v128h-1024v-128z" />
<glyph unicode="&#xe604;" glyph-name="align-text-justify" d="M1024 768v-128h-1024v128h1024zM0-128h1024v128h-1024v-128zM0 512v-128h1024v128h-1024zM0 128h1024v128h-1024v-128z" />
<glyph unicode="&#xe605;" glyph-name="align-text-left" d="M1024 768v-128h-1024v128h1024zM0-128h640v128h-640v-128zM640 512h-640v-128h640v128zM0 128h1024v128h-1024v-128z" />
<glyph unicode="&#xe606;" glyph-name="align-text-right" d="M1024 768v-128h-1024v128h1024zM384-128h640v128h-640v-128zM384 384h640v128h-640v-128zM0 128h1024v128h-1024v-128z" />
<glyph unicode="&#xe607;" glyph-name="chevron-up" d="M512 568.96l-407.040-407.040 90.24-90.88 316.8 316.8 316.8-316.8 90.24 90.88-407.040 407.040z" />
<glyph unicode="&#xe608;" glyph-name="chevron-right" d="M760.96 320l-407.040 407.040-90.88-90.24 316.8-316.8-316.8-316.8 90.88-90.24 407.040 407.040z" />
<glyph unicode="&#xe609;" glyph-name="chevron-down" d="M512 71.040l407.040 407.040-90.24 90.88-316.8-316.8-316.8 316.8-90.24-90.88 407.040-407.040z" />
<glyph unicode="&#xe60a;" glyph-name="chevron-left" d="M263.040 320l407.040-407.040 90.88 90.24-316.8 316.8 316.8 316.8-90.88 90.24-407.040-407.040z" />
<glyph unicode="&#xe60b;" glyph-name="chevron-small-up" d="M512 568.96l-320-312.96 90.24-90.24 229.76 222.080 229.76-222.080 90.24 90.24-320 312.96z" />
<glyph unicode="&#xe60c;" glyph-name="chevron-small-right" d="M760.96 320l-312.96 320-90.24-90.24 222.080-229.76-222.080-229.76 90.24-90.24 312.96 320z" />
<glyph unicode="&#xe60d;" glyph-name="chevron-small-down" d="M512 70.4l320 313.6-89.6 89.6-230.4-224-230.4 224-89.6-89.6z" />
<glyph unicode="&#xe60e;" glyph-name="chevron-small-left" d="M263.040 320l312.96-320 90.24 90.24-222.080 229.76 222.080 229.76-90.24 90.24-312.96-320z" />
<glyph unicode="&#xe60f;" glyph-name="arrow-up" d="M768 512h-192v-640h-128v640h-192l256 256z" />
<glyph unicode="&#xe610;" glyph-name="arrow-right" d="M704 576l256-256-256-256v192h-640v128h640v192z" />
<glyph unicode="&#xe611;" glyph-name="arrow-down" d="M256 128h192v640h128v-640h192l-256-256z" />
<glyph unicode="&#xe612;" glyph-name="arrow-left" d="M320 64l-256 256 256 256v-192h640v-128h-640v-192z" />
<glyph unicode="&#xe613;" glyph-name="arrow-back" d="M640 448h-320v192l-256-256 256-256v192h320c70.692 0 128-57.308 128-128v-256h128v256c0 141.385-114.615 256-256 256z" />
<glyph unicode="&#xe614;" glyph-name="arrow-forward" d="M384 448h320v192l256-256-256-256v192h-320c-70.692 0-128-57.308-128-128v-256h-128v256c0 141.385 114.615 256 256 256z" />
<glyph unicode="&#xe615;" glyph-name="arrow-down-up" d="M960 512h-192v-640h-128v640h-192l256 256zM384 768h-128v-640h-192l256-256 256 256h-192v640z" />
<glyph unicode="&#xe616;" glyph-name="arrow-left-right" d="M704 384l256-256-256-256v192h-640v128h640v192zM320 576v192l-256-256 256-256v192h640v128h-640z" />
<glyph unicode="&#xe617;" glyph-name="rotate" d="M960 320c0-0.010 0-0.021 0-0.032 0-247.424-200.576-448-448-448-123.72 0-235.726 50.151-316.8 131.232l90.24 90.24c57.944-58.12 138.086-94.080 226.628-94.080 176.731 0 320 143.269 320 320s-143.269 320-320 320c-88.542 0-168.684-35.96-226.62-94.072l162.552-161.288h-384v384l132.48-132.48c80.945 80.325 192.439 129.964 315.527 129.964 246.539 0 446.565-199.145 447.992-445.348z" />
<glyph unicode="&#xe618;" glyph-name="repeat" d="M960 384v384l-131.84-131.84c-80.958 80.4-192.503 130.090-315.654 130.090-247.424 0-448-200.576-448-448s200.576-448 448-448c225.466 0 412.030 166.555 443.368 383.34l-127.714 2.409c-30.137-147.948-159.19-257.708-313.878-257.708-176.731 0-320 143.269-320 320s143.269 320 320 320c88.010 0 167.722-35.53 225.575-93.028l-163.856-161.264h384z" />
<glyph unicode="&#xe619;" glyph-name="refresh" d="M737.28 545.28c-57.329 58.39-137.064 94.611-225.259 94.72-0.040 0-0.063 0-0.086 0-154.076 0-282.719-108.892-313.169-253.916l-128.366-2.084c34.057 216.567 219.337 380.245 442.847 380.245 122.468 0 233.459-49.141 314.33-128.781l132.423 132.536v-384h-384zM64-128l132.48 132.48c80.93-80.241 192.368-129.825 315.386-129.825 223.901 0 409.438 164.251 442.693 378.833l-127.68 2.511c-30.814-147.109-159.458-256.003-313.535-256.003-0.473 0-0.945 0.001-1.418 0.003-88.143 0.109-167.878 36.33-225.16 94.672l161.233 161.328h-384v-384z" />
<glyph unicode="&#xe61a;" glyph-name="replace" d="M256 384l-128-128v224c0 88.366 71.634 160 160 160h416v192l256-256-256-256v192h-416c-17.673 0-32-14.327-32-32v-96zM768 160c0-17.673-14.327-32-32-32h-416v192l-256-256 256-256v192h416c88.366 0 160 71.634 160 160v224l-128-128v-96z" />
<glyph unicode="&#xe61b;" glyph-name="plus" d="M960 384h-384v384h-128v-384h-384v-128h384v-384h128v384h384v128z" />
<glyph unicode="&#xe61c;" glyph-name="minus" d="M64 384h896v-128h-896v128z" />
<glyph unicode="&#xe61d;" glyph-name="plus-round" d="M832 384v-128h-256v-256h-128v256h-256v128h256v256h128v-256h256zM1024 320c0-282.77-229.23-512-512-512s-512 229.23-512 512c0 282.77 229.23 512 512 512s512-229.23 512-512zM896 320c0 212.077-171.923 384-384 384s-384-171.923-384-384c0-212.077 171.923-384 384-384s384 171.923 384 384z" />
<glyph unicode="&#xe61e;" glyph-name="minus-round" d="M840.32 384v-128h-640v128h640zM1024 320c0-282.77-229.23-512-512-512s-512 229.23-512 512c0 282.77 229.23 512 512 512s512-229.23 512-512zM896 320c0 212.077-171.923 384-384 384s-384-171.923-384-384c0-212.077 171.923-384 384-384s384 171.923 384 384z" />
<glyph unicode="&#xe61f;" glyph-name="check" d="M936.32 549.12l-90.88 90.88-453.12-459.52-213.76 213.76-90.88-90.24 304-304 0.64 0.64 0.64-0.64 543.36 549.12z" />
<glyph unicode="&#xe620;" glyph-name="cross" d="M919.040 636.8l-90.24 90.24-316.8-316.8-316.8 316.8-90.24-90.24 316.8-316.8-316.8-316.8 90.24-90.24 316.8 316.8 316.8-316.8 90.24 90.24-316.8 316.8 316.8 316.8z" />
<glyph unicode="&#xe621;" glyph-name="check-round" d="M512 832c-282.77 0-512-229.23-512-512s229.23-512 512-512c282.77 0 512 229.23 512 512s-229.23 512-512 512zM512-64c-0.072 0-0.157 0-0.241 0-212.077 0-384 171.923-384 384s171.923 384 384 384c115.654 0 219.366-51.129 289.766-132.016l-324.724-325.584-192 192-92.8-87.68 283.52-283.52 392.32 392.32c16.61-41.364 26.245-89.319 26.245-139.525 0-211.404-170.833-382.908-381.981-383.995z" />
<glyph unicode="&#xe622;" glyph-name="cross-round" d="M783.36 138.88l-181.12 181.12 181.12 181.12-90.24 90.24-181.12-181.12-181.12 181.12-90.24-90.24 181.12-181.12-181.12-181.12 90.24-90.24 181.12 181.12 181.12-181.12 90.24 90.24zM1024 320c0-282.77-229.23-512-512-512s-512 229.23-512 512c0 282.77 229.23 512 512 512s512-229.23 512-512zM896 320c0 212.077-171.923 384-384 384s-384-171.923-384-384c0-212.077 171.923-384 384-384s384 171.923 384 384z" />
<glyph unicode="&#xe623;" glyph-name="circle" d="M1024 320c0-282.77-229.23-512-512-512s-512 229.23-512 512c0 282.77 229.23 512 512 512s512-229.23 512-512zM896 320c0 212.077-171.923 384-384 384s-384-171.923-384-384c0-212.077 171.923-384 384-384s384 171.923 384 384z" />
<glyph unicode="&#xe624;" glyph-name="not-allowed" d="M512 832c-282.77 0-512-229.23-512-512s229.23-512 512-512c282.77 0 512 229.23 512 512s-229.23 512-512 512zM128 320c0.175 211.945 172.031 383.693 384 383.693 83.26 0 160.331-26.498 223.24-71.522l-536.2-534.251c-44.34 61.721-70.943 138.784-71.040 222.056zM512-64c-83.296 0.097-160.359 26.7-223.23 71.825l536.19 534.255c44.234-61.749 70.733-138.82 70.733-222.080 0-211.969-171.748-383.825-383.676-384z" />
<glyph unicode="&#xe625;" glyph-name="exclamation" d="M448 160l-32 608h192l-32-608h-128zM416-96h192v192h-192v-192z" />
<glyph unicode="&#xe626;" glyph-name="warning" d="M512 768l-512-896h1024zM576 512l-16-384h-96l-16 384h128zM576-64h-128v123.52h128v-123.52z" />
<glyph unicode="&#xe627;" glyph-name="notice" d="M1024 320c0 282.77-229.23 512-512 512s-512-229.23-512-512c0-282.77 229.23-512 512-512s512 229.23 512 512zM576 704l-16-576h-96l-16 576h128zM576-64h-128v123.52h128v-123.52z" />
<glyph unicode="&#xe628;" glyph-name="help" d="M512 832c-282.77 0-512-229.23-512-512s229.23-512 512-512c282.77 0 512 229.23 512 512s-229.23 512-512 512zM576-64h-128v123.52h128v-123.52zM576 192v-40.96h-128v50.56c0 152.32 172.8 176 172.8 284.16-3.114 49.074-43.678 87.696-93.263 87.696-3.897 0-7.738-0.239-11.509-0.702-42.41-3.061-80.992-19.209-111.912-44.402l-73.236 91.808c50.956 46.83 119.216 75.535 194.18 75.535 1.034 0 2.066-0.005 3.097-0.016 118.243 0.001 228.323-73.599 228.323-197.119 0.64-173.44-180.48-193.28-180.48-306.56z" />
<glyph unicode="&#xe629;" glyph-name="bell" d="M960 0h-896l128 320v128c0.069 130.366 78.085 242.494 189.964 292.31l2.036 27.69c0 35.346 28.654 64 64 64h128c35.346 0 64-28.654 64-64v-26.88c113.915-50.626 191.931-162.754 192-293.111v-128.009zM512-192c82.881 0.24 153.387 52.958 180.057 126.663l-360.537 1.337c27.093-75.042 97.599-127.76 180.451-128z" />
<glyph unicode="&#xe62a;" glyph-name="brand" d="M256 134.4h73.6v369.92h-73.6v71.68h283.52c4.771 0.245 10.359 0.385 15.98 0.385 33.781 0 66.382-5.053 97.088-14.443 50.744-14.274 89.428-61.212 91.723-117.53-0.391-49.848-31.222-92.142-74.711-109.412l-0.8-0.28c56.865-10.919 99.246-60.274 99.246-119.528 0-1.179-0.017-2.354-0.050-3.524-3.538-69.885-54.923-126.961-121.963-139.209-25.042-5.533-52.755-8.623-81.189-8.623-3.954 0-7.894 0.060-11.819 0.178l-297.025-0.014v70.4zM552.32 366.72c3.466-0.666 7.453-1.047 11.529-1.047 35.346 0 64 28.654 64 64 0 0.368-0.003 0.735-0.009 1.102 0.004 0.172 0.005 0.441 0.005 0.711 0 25.096-14.445 46.818-35.474 57.307-14.264 5.128-30.292 7.996-46.989 7.996-2.287 0-4.561-0.054-6.822-0.16l-95.040 0.012v-129.92h108.8zM558.72 139.52c0.946-0.022 2.060-0.034 3.177-0.034 14.601 0 28.707 2.117 42.029 6.060 27.943 10.283 48.273 37.601 48.273 69.666 0 0.84-0.014 1.676-0.042 2.509-1.241 41.676-35.421 75.085-77.405 75.085-4.305 0-8.527-0.351-12.641-1.027l-118.591 0.061v-152.32h115.2zM896 576l128 128-128 128-128-128-128 128-128-128-128 128-128-128-128 128-128-128 128-128-128-128 128-128-128-128 128-128-128-128 128-128 128 128 128-128 128 128 128-128 128 128 128-128 128 128-128 128 128 128-128 128 128 128zM832 0h-640v640h640v-640z" />
<glyph unicode="&#xe62b;" glyph-name="calendar" d="M256 512h128v-128h-128v128zM1024 832v-768l-256-256h-768v1024h1024zM128 672c0-17.673 14.327-32 32-32h704c17.673 0 32 14.327 32 32s-14.327 32-32 32h-704c-17.673 0-32-14.327-32-32zM896 64v512h-768v-640h640v128h128zM256 192h128v128h-128v-128zM256 0h128v128h-128v-128zM448 0h128v128h-128v-128zM640 384h128v128h-128v-128zM640 192h128v128h-128v-128zM448 384h128v128h-128v-128zM448 192h128v128h-128v-128z" />
<glyph unicode="&#xe62c;" glyph-name="clock" d="M512 832c-282.77 0-512-229.23-512-512s229.23-512 512-512c282.77 0 512 229.23 512 512s-229.23 512-512 512zM512-64c-211.119 1.262-381.776 172.698-381.776 383.994 0 188.676 136.075 345.57 315.44 377.897l2.335-441.891h320v128h-192v314.24c181.701-32.676 317.776-189.57 317.776-378.246 0-211.295-170.657-382.732-381.656-383.993z" />
<glyph unicode="&#xe62d;" glyph-name="stopwatch" d="M967.040 581.12l-80.64 80-64-64c-67.558 62.585-154.687 104.927-251.233 116.897l-2.207 4.063c31.458 0 56.96 25.502 56.96 56.96s-25.502 56.96-56.96 56.96h-113.92c-31.458 0-56.96-25.502-56.96-56.96s25.502-56.96 56.96-56.96v-3.84c-225.589-29.647-397.93-220.7-397.93-452.006 0-251.665 204.015-455.68 455.68-455.68s455.68 204.015 455.68 455.68c0 91.601-27.028 176.889-73.544 248.325zM512-92.16c-187.857 5.663-337.989 159.305-337.989 348.011 0 185.779 145.509 337.572 328.776 347.63l-33.667-239.961c-43.285-17.436-73.28-59.084-73.28-107.738 0-63.977 51.863-115.84 115.84-115.84s115.84 51.863 115.84 115.84c0 48.654-29.995 90.302-72.502 107.461l-34.698 240.277c184.16-10.096 329.669-161.89 329.669-347.669 0-188.707-150.132-342.348-337.469-347.999z" />
<glyph unicode="&#xe62e;" glyph-name="cog" d="M1024 206.080v227.84h-128c-9.432 29.918-20.937 55.764-34.937 79.987l93.177 87.693-160.64 160.64-89.6-92.16c-22.316 12.983-48.162 24.488-75.279 33.148l-2.801 128.772h-227.84v-128c-29.918-9.432-55.764-20.937-79.987-34.937l-87.693 93.177-160.64-160.64 92.16-89.6c-12.983-22.316-24.488-48.162-33.148-75.279l-128.772-2.801v-227.84h128c9.432-29.918 20.937-55.764 34.937-79.987l-93.177-87.693 160.64-160.64 89.6 92.16c22.315-12.977 48.16-24.482 75.275-33.146l2.805-128.774h227.84v128c29.92 9.438 55.765 20.943 79.991 34.938l90.249-93.178 160.64 160.64-94.72 89.6c12.983 22.316 24.488 48.162 33.148 75.279l128.772 2.801zM512 149.12c-94.374 0-170.88 76.506-170.88 170.88s76.506 170.88 170.88 170.88c94.374 0 170.88-76.506 170.88-170.88s-76.506-170.88-170.88-170.88z" />
<glyph unicode="&#xe62f;" glyph-name="collection" d="M1024 768v-512h-128v384h-512v128h640zM192 448h512v-384h128v512h-640v-128zM0-128h640v512h-640v-512z" />
<glyph unicode="&#xe630;" glyph-name="comment" d="M1024 832v-768h-512l-256-256v256h-256v768h1024z" />
<glyph unicode="&#xe631;" glyph-name="comments" d="M1024 448v-448h-64v-192l-192 192h-448v192h576v256h128zM832 832h-832v-576h64v-192l192 192h576v576z" />
<glyph unicode="&#xe632;" glyph-name="config" d="M192 320h-128v512h128v-512zM64-192h128v192h-128v-192zM0 64h256v192h-256v-192zM384 448h256v192h-256v-192zM768 448v-192h256v192h-256zM960 832h-128v-320h128v320zM832-192h128v384h-128v-384zM576 832h-128v-128h128v128zM448-192h128v576h-128v-576z" />
<glyph unicode="&#xe633;" glyph-name="crop" d="M960 128h-128v466.56l118.4 118.4-45.44 45.44-118.4-118.4h-466.56v128h-128v-128h-128v-128h128v-512h512v-128h128v128h128v128zM658.56 512l-338.56-338.56v338.56h338.56zM365.44 128l338.56 338.56v-338.56h-338.56z" />
<glyph unicode="&#xe634;" glyph-name="customer-support" d="M231.68 551.68c0 154.993 125.647 280.64 280.64 280.64s280.64-125.647 280.64-280.64c0-154.88-128-374.4-280.32-374.4s-280.96 218.88-280.96 374.4zM960 512c0 70.692-57.308 128-128 128v-384c-11.684-40.212-41.488-71.7-79.748-85.479-12.524 12.915-29.392 21.259-48.214 21.479-35.385 0-64.039-28.653-64.039-64 0.285-15.159 5.798-28.978 14.803-39.783-41.545 21.752-90.117 35.992-141.604 39.713-92.079 0.070-277.039-95.29-385.199-222.010v-97.92h768v100.48c-54.321 61.363-117.701 113.121-188.369 153.604l-3.631 1.916c26.984 0.082 50.031 16.851 59.369 40.526 39.191 17.714 132.631 68.274 132.631 151.474v145.92c38.313 22.415 63.708 63.249 64 110.038zM192 640c-70.692 0-128-57.308-128-128s57.308-128 128-128v256z" />
<glyph unicode="&#xe635;" glyph-name="dashboard" d="M512 832c-282.77 0-512-229.23-512-512s229.23-512 512-512c282.77 0 512 229.23 512 512s-229.23 512-512 512zM512-64c-212.077 0-384 171.923-384 384s171.923 384 384 384c212.077 0 384-171.923 384-384s-171.923-384-384-384zM192 352h128v-64h-128v64zM832 352v-64h-128v64h128zM398.72 480l-45.44-45.44-90.24 88.96 45.44 45.44zM760.96 525.44l-90.88-92.16-44.8 44.8 90.24 90.24zM627.84 164.48c0-0.027 0-0.059 0-0.091 0-63.977-51.863-115.84-115.84-115.84s-115.84 51.863-115.84 115.84c0 48.533 29.846 90.095 72.185 107.332l35.335 240.279h-23.68v128h64v-128h-23.68l34.56-240c43.086-17.505 72.921-59.024 72.96-107.515z" />
<glyph unicode="&#xe636;" glyph-name="door" d="M192-192h640v832h-640v-832zM608 256h128c17.673 0 32-14.327 32-32s-14.327-32-32-32h-128c-17.673 0-32 14.327-32 32s14.327 32 32 32zM1024 832v-1024h-128v896h-768v-896h-128v1024h1024z" />
<glyph unicode="&#xe637;" glyph-name="download" d="M512 0l-384 384h256v448h256v-448h256zM896 192v-256h-768v256h-128v-384h1024v384h-128z" />
<glyph unicode="&#xe638;" glyph-name="draggable-vertical" d="M320 640v-640h-128v640h128zM448 640v-640h128v640h-128zM832 640h-128v-640h128v640z" />
<glyph unicode="&#xe639;" glyph-name="draggable" d="M256 640h192v-128h-192v128zM256 256h192v128h-192v-128zM256 0h192v128h-192v-128zM576 640v-128h192v128h-192zM576 256h192v128h-192v-128zM576 0h192v128h-192v-128z" />
<glyph unicode="&#xe63a;" glyph-name="edit-text" d="M238.080 409.6v345.6c-7.655 0.59-16.578 0.926-25.579 0.926-46.056 0-90.057-8.797-130.415-24.803-23.167-33.862-41.933-75.201-51.028-120.050l-31.058-1.993 7.68 222.72h601.6l7.68-222.72h-30.72c-10.272 48.031-32.788 89.717-64.122 123.011-20.358 22.909-74.118 22.909-153.478 22.909v-353.28c-0.509-3.988-0.8-8.603-0.8-13.285 0-26.028 8.981-49.959 24.014-68.861 31.022-11.632 67.378-20.63 105.11-25.155l2.237-38.618h-384v38.4c39.222 0.329 76.169 9.748 108.939 26.247 9.367 18.797 15.716 41.992 15.716 66.669 0 7.868-0.645 15.585-1.886 23.101zM883.84 588.16l-512-512 140.16-140.16 512 512zM243.84-192l235.52 95.36-140.16 140.16z" />
<glyph unicode="&#xe63b;" glyph-name="ellipsis-vertical" d="M512 576c-70.692 0-128 57.308-128 128s57.308 128 128 128c70.692 0 128-57.308 128-128s-57.308-128-128-128zM640 320c0 70.692-57.308 128-128 128s-128-57.308-128-128c0-70.692 57.308-128 128-128s128 57.308 128 128zM640-64c0 70.692-57.308 128-128 128s-128-57.308-128-128c0-70.692 57.308-128 128-128s128 57.308 128 128z" />
<glyph unicode="&#xe63c;" glyph-name="ellipsis" d="M256 320c0-70.692-57.308-128-128-128s-128 57.308-128 128c0 70.692 57.308 128 128 128s128-57.308 128-128zM512 448c-70.692 0-128-57.308-128-128s57.308-128 128-128c70.692 0 128 57.308 128 128s-57.308 128-128 128zM896 448c-70.692 0-128-57.308-128-128s57.308-128 128-128c70.692 0 128 57.308 128 128s-57.308 128-128 128z" />
<glyph unicode="&#xe63d;" glyph-name="code" d="M640 704l-183.040-768h-72.96l183.040 768h72.96zM172.16 320l211.84 229.76-86.4 90.24-297.6-320 297.6-320 86.4 90.24zM725.76 640l-85.76-90.24 211.84-229.76-211.84-229.76 86.4-90.24 297.6 320z" />
<glyph unicode="&#xe63e;" glyph-name="embed" d="M172.16 320l211.84 229.76-86.4 90.24-297.6-320 297.6-320 86.4 90.24zM725.76 640l-85.76-90.24 211.84-229.76-211.84-229.76 86.4-90.24 297.6 320z" />
<glyph unicode="&#xe63f;" glyph-name="expand" d="M218.24-64h229.76v-128h-448v448h128v-229.76l256 256 90.24-90.24zM549.76 448l90.24-90.24 256 256v-229.76h128v448h-448v-128h229.76z" />
<glyph unicode="&#xe640;" glyph-name="shrink" d="M293.76 192h-229.76v128h448v-448h-128v229.76l-293.76-293.76-90.24 90.24zM1024 741.76l-90.24 90.24-293.76-293.76v229.76h-128v-448h448v128h-229.76z" />
<glyph unicode="&#xe641;" glyph-name="eye" d="M512 704c-357.76 0-512-384-512-384s154.24-384 512-384 512 384 512 384-154.24 384-512 384zM512 0c-176.731 0-320 143.269-320 320s143.269 320 320 320c176.731 0 320-143.269 320-320s-143.269-320-320-320zM695.040 375.68c5.451-16.598 8.71-35.714 8.959-55.556 0.001-106.163-85.96-192.124-191.999-192.124s-192 85.961-192 192c0 106.039 85.961 192 192 192 19.966-0.25 39.082-3.509 57.038-9.342-34.588-15.194-57.191-48.363-57.191-86.811 0-53.019 42.981-96 96-96 38.448 0 71.618 22.603 86.945 55.246z" />
<glyph unicode="&#xe642;" glyph-name="scissor" d="M768 192c-35.369-2.701-68.004-11.858-97.587-26.299l-100.813 128.699 19.2 25.6h51.2l256 320v192l-384-467.2-384 467.2v-192l256-320h51.2l19.2-25.6-102.4-128c-27.996 13.742-60.631 22.899-95.088 25.544-106.95 0.056-192.912-85.905-192.912-191.944s85.961-192 192-192c106.039 0 192 85.961 192 192 0.001 0.238 0.002 0.519 0.002 0.801 0 38.040-11.981 73.281-32.375 102.156l96.373 121.043 96-121.6c-20.021-28.319-32.002-63.56-32.002-101.599 0-0.281 0.001-0.563 0.002-0.844 0-105.995 85.961-191.957 192-191.957s192 85.961 192 192c0 106.039-85.961 192-192 192zM256-108.8c0 0 0 0 0 0-60.089 0-108.8 48.711-108.8 108.8s48.711 108.8 108.8 108.8c0 0 0 0 0 0 60.089 0 108.8-48.711 108.8-108.8s-48.711-108.8-108.8-108.8zM768-108.8c-60.089 0-108.8 48.711-108.8 108.8s48.711 108.8 108.8 108.8c60.089 0 108.8-48.711 108.8-108.8-1.726-59.381-49.419-107.074-108.638-108.796z" />
<glyph unicode="&#xe643;" glyph-name="file-copy" d="M864 640h-224v32l-160 160h-480v-832h384v-192h640v672zM384 64h-320v704h384v-128h-64v-576zM960-128h-512v704h384v-128h128v-576z" />
<glyph unicode="&#xe644;" glyph-name="file-paste" d="M864 640h-224v128h-69.76c-13.546 37.521-48.799 63.88-90.225 64h-320.015c-41.441-0.12-76.694-26.479-90.029-63.331l-69.971-0.669v-768h384v-192h640v672zM128 704v32c0 17.673 14.327 32 32 32h320c17.673 0 32-14.327 32-32v-32h-384zM960-128h-512v704h384v-128h128v-576z" />
<glyph unicode="&#xe645;" glyph-name="file" d="M576 512h320v-704h-768v1024h448v-320zM640 832v-256h256z" />
<glyph unicode="&#xe646;" glyph-name="folder" d="M1024 448v-576h-1024v576h1024zM576 640l-128 128h-448v-256h1024v128h-448z" />
<glyph unicode="&#xe647;" glyph-name="filter" d="M1024 768h-1024l384-384v-512h256v512l384 384z" />
<glyph unicode="&#xe648;" glyph-name="flash" d="M576 512l192 320h-320l-256-576h244.48l-244.48-448 704 704h-320z" />
<glyph unicode="&#xe649;" glyph-name="font" d="M0 832v-1024h1024v1024h-1024zM839.040 500.48l-12.16 43.52c-13.665 46.885-50.149 82.945-96.304 95.768-41.653 13.436-88.456 21.050-137.038 21.050-6.168 0-12.307-0.123-18.416-0.366q-49.683 0.028-115.603-3.172v-309.76h36.48c9.233-1.18 19.915-1.854 30.755-1.854 39.497 0 76.904 8.945 110.308 24.918 25.461 34.515 42.126 78.874 43.253 127.077l32.645 0.258v-332.8h-32c-1.563 49.738-21.498 94.537-53.207 128.093-17.432 8.922-38.143 14.207-60.088 14.207-2.697 0-5.374-0.080-8.031-0.237l-100.754 0.017v-248.32c-0.814-5.842-1.279-12.592-1.279-19.45 0-22.918 5.192-44.623 14.465-64.004 32.87-6.345 71.257-10.748 110.582-11.262l0.393-28.164h-428.16v26.88c40.433 2.026 78.202 11.247 112.776 26.404 1.276 6.937 3.213 15.948 3.213 25.411 0 1.585-0.054 3.157-0.161 4.715l0.012 612.27c-0.924 9.329-6.611 17.144-14.566 21.051-7.834 3.909-101.274 17.989-101.274 17.989v33.28h682.24l20.48-203.52h-18.56z" />
<glyph unicode="&#xe64a;" glyph-name="globe" d="M512 832c-282.77 0-512-229.23-512-512s229.23-512 512-512c282.77 0 512 229.23 512 512s-229.23 512-512 512zM960 270.080c-13.448-3.788-28.891-5.966-44.843-5.966-10.844 0-21.454 1.006-31.739 2.931-22.598 19.579-37.544 49.077-37.544 82.066 0 10.373 1.478 20.4 4.234 29.884 13.34 42.011 44.845 75.612 85.227 91.699 16.031-42.566 24.722-92.041 24.722-143.546 0-2.513-0.021-5.022-0.062-7.525 0.445-7.081 0.696-15.802 0.696-24.583s-0.251-17.502-0.746-26.158zM512 103.68c-32.434 23.082-58.734 52.655-77.411 86.976 4.451 12.224-0.669 24.384 5.731 34.624s16.64 23.68 21.12 36.48 3.84 39.040 30.72 45.44l6.4-17.92c4.968 5.3 8.406 12.091 9.573 19.632 17.947-10.032 37.787-9.392 56.347-18.992 24.363-12.26 45.36-26.1 64.548-42.042-0.926-1.422-1.142-3.565-1.142-5.759 0-6.485 1.891-12.529 5.153-17.609 35.936-3.946 68.227-17.259 95.156-37.357-5.594-23.794-13.326-45.187-23.586-65.065-0.173-25.326-17.317-47.872-41.125-56.665-12.236-19.577-24.426-42.892-35.23-66.964-6.688-6.992-10.013-12.236-10.013-18.256 0-0.015 0-0.031 0-0.046-9.805-15.083-24.13-26.511-41.035-32.464-0.162-4.905 2.245-9.004 5.794-11.663-0.343-7.211-3.19-13.661-7.662-18.616 3.067-9.328 6.102-16.953 9.542-24.351-1.003-0.682-1.258-3.002-1.258-5.382s0.255-4.7 0.738-6.935l-22.439-8.745c-53.76 72.32-26.88 149.76-49.92 231.68zM649.6 658.56v0h-9.6c-2.802-3.061-4.518-7.155-4.518-11.651 0-0.404 0.014-0.806 0.041-1.203-11.453 0.628-21.978 4.126-30.987 9.809l0.264 4.324c6.976 4.274 12.608 10.111 16.519 17.046-1.781 7.7-5.339 14.165-10.152 19.471-4.689 2.542-10.31 4.059-16.287 4.059s-11.598-1.517-16.501-4.186l-2.379 7.77 8.32 8.32c5.406 1.853 11.635 2.922 18.113 2.922 24.826 0 45.983-15.705 54.078-37.723l-6.911-5.52c-0.554-2.663-0.872-5.723-0.872-8.858 0-1.614 0.084-3.208 0.248-4.779zM502.4 695.040l-3.84-3.84h-55.040c-4.633 7.117-12.235 11.966-21.008 12.791l-0.112 5.129 18.56 7.68c13.798-6.219 29.802-10.729 46.578-12.724 4.796 2.783 9.5 4.989 14.575 6.263l0.287-15.299zM912 521.6q9.6-18.56 17.28-38.4c-3.73-2.339-8.263-3.726-13.12-3.726s-9.39 1.387-13.225 3.787l0.105 34.499zM728.32 704l-24.32 20.48c31.239-15.061 58.118-31.904 82.903-51.301-19.561-6.938-34.815-19.515-45.561-35.392l-7.262-0.347c-10.137 10.696-18.189 23.483-23.431 37.634l5.511 10.366h7.040l7.68 10.24zM627.84 752.64l37.76-12.16c-23.040-10.24-51.84-25.6-69.12 0 8.58 6.888 19.382 11.337 31.185 12.15zM270.080 696.96h32.64c33.28-30.72 77.44-3.2 118.4-11.52 11.675-3.856 25.352-6.79 39.468-8.249 7.036 1.032 14.155 1.663 21.422 1.663 12.284 0 24.148-1.803 35.34-5.158 5.951 12.142 14.728 22.144 25.134 30.13 5.262-3.654 8.766-9.255 9.816-15.682l5.779-5.904 22.4 8.32c-11.038-7.278-23.702-13.745-37.076-18.764l-2.604-2.996c-14.72-28.16-53.76-15.36-64-52.48 9.639-4.688 21.5-9.458 33.705-13.472l2.135-10.208 6.4-12.8c17.159 10.119 30.206 25.651 36.934 44.212 7.277 9.536 16.015 16.843 25.986 22.135l19-6.187c2.053-8.37 7.118-15.312 13.954-19.763l15.486 8.243 9.6-1.92c-0.064-0.955-0.1-2.070-0.1-3.194 0-9.169 2.41-17.776 6.632-25.22l8.187-2.946v-9.6c-24.96-13.44-60.8-9.6-78.72-24.96l23.68-4.48-8.32-7.68h25.6v-6.4c-10.317-7.111-22.167-13.172-34.786-17.598-1.258 1.788-1.375 4.239-1.375 6.718s0.116 4.93 0.344 7.349c-13.389-14.515-30.196-25.332-49.119-31.439-28.452-20.71-52.272-44.124-72.522-70.429 0.749-4.726 1.541-9.206 1.541-13.87 0-8.254-2.48-15.928-6.736-22.319l-6.307 2.708c-2.374 13.983-10.68 25.655-22.186 32.522-28.374-7.562-105.814-18.442-74.454-74.762l28.16-3.84c4.58 3.999 8.258 8.907 10.772 14.455l14.188 0.265v-8.32l-8.32-21.76v-5.12h17.92l9.6-5.12c-0.297-2.384-0.467-5.144-0.467-7.943 0-15.914 5.479-30.547 14.654-42.118-19.096 6.977-34.214 20.639-42.79 38.096-15.557 5.564-51.397 14.524-51.397 14.524-62.72 13.44-44.8 74.24-87.68 107.52 1.76-17.186 4.918-32.83 9.426-47.892-10.075 16.807-16.853 34.542-19.582 53.583-9.267 12.334-14.815 27.201-14.815 43.364 0 5.758 0.704 11.352 2.031 16.7 6.3 19.365 26.78 32.805 33.18 51.365 1.923 9.621 3.023 20.682 3.023 32s-1.1 22.379-3.2 33.082c-12.48 8.293-28.401 13.924-45.637 13.924-10.234 0-20.004-1.985-28.946-5.591 23.615 24.172 49.192 45.479 76.924 63.786z" />
<glyph unicode="&#xe64b;" glyph-name="heart-outline" d="M757.12 717.44c0.010 0 0.022 0 0.034 0 59.038 0 112.349-24.521 150.303-63.934 90.943-93.506 64.063-238.146-72.257-377.026l-323.2-335.36-323.84 334.080c-135.68 139.52-162.56 284.16-71.040 376.96 37.784 39.234 90.766 63.604 149.44 63.604s111.656-24.369 149.378-63.539c15.324-15.807 28.514-33.69 39.108-53.189l56.954-105.596 56.32 104.96c11.237 20.772 24.426 38.654 39.742 54.464 37.346 39.388 90.137 63.936 148.661 63.936 0.14 0 0.279 0 0.419 0zM757.12 780.8c-76.777-0.036-146.039-32.178-195.094-83.728-19.307-19.928-35.901-42.44-49.227-66.985-14.932 24.541-31.525 47.053-50.797 66.954-49.363 51.235-118.68 83.108-195.441 83.108s-146.078-31.872-195.439-83.105c-108.881-111.444-98.641-291.924 70.959-466.004l354.56-366.080c3.963-3.886 9.37-6.312 15.343-6.4 5.955 0.39 11.277 2.749 15.403 6.422l354.534 366.058c169.6 174.72 179.84 355.2 71.68 465.92-49.6 51.84-119.234 84.159-196.42 84.48h-0.060z" />
<glyph unicode="&#xe64c;" glyph-name="heart" d="M881.92 231.040c169.6 174.72 179.84 355.2 71.68 465.92-49.31 51.847-118.809 84.096-195.84 84.096s-146.53-32.249-195.733-83.983c-19.308-19.93-35.902-42.442-49.229-66.986-14.932 24.541-31.525 47.053-50.797 66.954-49.363 51.235-118.68 83.108-195.441 83.108s-146.078-31.872-195.439-83.105c-108.881-111.444-98.641-291.924 70.959-466.004l354.56-366.080c3.963-3.886 9.37-6.312 15.343-6.4 5.955 0.39 11.277 2.749 15.403 6.422z" />
<glyph unicode="&#xe64d;" glyph-name="star-outline" d="M512 640l98.56-238.72 256-18.56-192-168.32 59.52-247.040-222.080 131.2-218.24-131.84 58.88 247.040-193.92 170.24 256 18.56 97.28 237.44zM512 807.040l-142.080-344.96-369.92-26.88 281.6-243.2-85.76-358.4 316.16 192 316.16-192-85.76 358.4 281.6 243.2-369.92 26.88-142.080 344.96z" />
<glyph unicode="&#xe64e;" glyph-name="star" d="M512 807.040l142.080-344.96 369.92-26.88-281.6-243.84 85.76-358.4-316.16 190.72-316.16-190.72 85.76 358.4-281.6 243.84 369.92 26.88 142.080 344.96z" />
<glyph unicode="&#xe64f;" glyph-name="home" d="M1024 256h-192v-384h-256v192h-128v-192h-256v384h-192l512 512z" />
<glyph unicode="&#xe650;" glyph-name="import" d="M576 512c0 256 152.32 320 320 320h-192c-204.16 0-384-64-384-320v-320h-256l384-384 384 384h-256v320z" />
<glyph unicode="&#xe651;" glyph-name="item-photo" d="M960 832h-896c-1.188 0.084-2.574 0.131-3.971 0.131-33.225 0-60.16-26.935-60.16-60.16 0-1.397 0.048-2.783 0.141-4.157l-0.010-895.814c-0.084-1.188-0.131-2.574-0.131-3.971 0-33.225 26.935-60.16 60.16-60.16 1.397 0 2.783 0.048 4.157 0.141l895.814-0.010c1.188-0.084 2.574-0.131 3.971-0.131 33.225 0 60.16 26.935 60.16 60.16 0 1.397-0.048 2.783-0.141 4.157l0.010 895.814c0.084 1.188 0.131 2.574 0.131 3.971 0 33.225-26.935 60.16-60.16 60.16-1.397 0-2.783-0.048-4.157-0.141zM896 0h-768v640h768v-640zM640 480c0 53.019 42.981 96 96 96s96-42.981 96-96c0-53.019-42.981-96-96-96s-96 42.981-96 96zM512 64h-320l266.88 320 160-192 53.12 64 160-192h-320z" />
<glyph unicode="&#xe652;" glyph-name="item-video" d="M960 832h-896c-1.188 0.084-2.574 0.131-3.971 0.131-33.225 0-60.16-26.935-60.16-60.16 0-1.397 0.048-2.783 0.141-4.157l-0.010-895.814c-0.084-1.188-0.131-2.574-0.131-3.971 0-33.225 26.935-60.16 60.16-60.16 1.397 0 2.783 0.048 4.157 0.141l895.814-0.010c1.188-0.084 2.574-0.131 3.971-0.131 33.225 0 60.16 26.935 60.16 60.16 0 1.397-0.048 2.783-0.141 4.157l0.010 895.814c0.084 1.188 0.131 2.574 0.131 3.971 0 33.225-26.935 60.16-60.16 60.16-1.397 0-2.783-0.048-4.157-0.141zM896 64l-256 256v-256h-512v512h512v-256l256 256v-512z" />
<glyph unicode="&#xe653;" glyph-name="item-text" d="M960 832h-896c-1.188 0.084-2.574 0.131-3.971 0.131-33.225 0-60.16-26.935-60.16-60.16 0-1.397 0.048-2.783 0.141-4.157l-0.010-895.814c-0.084-1.188-0.131-2.574-0.131-3.971 0-33.225 26.935-60.16 60.16-60.16 1.397 0 2.783 0.048 4.157 0.141l895.814-0.010c1.188-0.084 2.574-0.131 3.971-0.131 33.225 0 60.16 26.935 60.16 60.16 0 1.397-0.048 2.783-0.141 4.157l0.010 895.814c0.084 1.188 0.131 2.574 0.131 3.971 0 33.225-26.935 60.16-60.16 60.16-1.397 0-2.783-0.048-4.157-0.141zM832 454.4h-25.6c-8.046 39.822-26.078 74.544-51.37 102.592-27.15 13.687-59.402 21.817-93.553 21.817-12.106 0-23.973-1.022-35.52-2.983l-62.758 0.174v-454.4c-0.58-3.886-0.912-8.37-0.912-12.932 0-21.817 7.581-41.863 20.252-57.648 25.971-9.052 56.37-15.838 87.859-18.894l1.601-32.126h-320v32c0.844-0.012 1.84-0.020 2.838-0.020 31.493 0 61.332 7.086 88.007 19.752 7.901 15.822 13.288 35.351 13.288 56.139 0 7.112-0.63 14.077-1.839 20.842l0.106 447.287h-64c-6.404 0.496-13.867 0.779-21.397 0.779-38.353 0-74.993-7.334-108.594-20.676-19.39-28.192-35.040-62.656-42.536-100.068l-25.873-1.635v185.6h640v-185.6z" />
<glyph unicode="&#xe654;" glyph-name="photo" d="M0 768v-896h1024v896h-1024zM768 0h-640l320 384 192-230.4 64 76.8 192-230.4h-128zM792.32 384c-70.692 0-128 57.308-128 128s57.308 128 128 128c70.692 0 128-57.308 128-128s-57.308-128-128-128z" />
<glyph unicode="&#xe655;" glyph-name="video" d="M640 640v-640h-640v640h640zM640 320l384-320v640z" />
<glyph unicode="&#xe656;" glyph-name="text" d="M983.040 535.040c-12.9 63.709-41.746 119.259-82.195 164.15-30.445 30.41-102.125 30.41-204.525 30.41h-102.4v-729.6c-0.916-6.184-1.44-13.322-1.44-20.582 0-34.94 12.12-67.048 32.386-92.351 41.72-13.71 90.487-23.706 140.938-27.727l2.196-51.341h-512v51.2c1.334-0.019 2.909-0.031 4.487-0.031 50.408 0 98.168 11.338 140.869 31.603 12.647 25.298 21.269 56.531 21.269 89.777 0 11.395-1.013 22.554-2.954 33.392l0.169 715.659h-99.84c-10.216 0.788-22.124 1.237-34.138 1.237-61.397 0-120.054-11.731-173.853-33.073-31.795-45.031-57.654-100.108-70.558-160.001l-41.452-2.723v296.96h1024v-296.96h-40.96z" />
<glyph unicode="&#xe657;" glyph-name="key" d="M741.76 832h-459.52c-43.25-0.297-78.196-35.427-78.196-78.718 0-3.838 0.275-7.612 0.806-11.304l51.15-357.978h128v-512l64-64 192 192v64h-64v128h64v192h128l51.2 358.4c0.481 3.269 0.756 7.043 0.756 10.882 0 43.292-34.946 78.421-78.167 78.718zM608 640h-192c-17.673 0-32 14.327-32 32s14.327 32 32 32h192c17.673 0 32-14.327 32-32s-14.327-32-32-32z" />
<glyph unicode="&#xe658;" glyph-name="link" d="M666.88 410.24c36.127-36.23 58.465-86.226 58.465-141.44s-22.338-105.21-58.47-141.445l-261.115-260.475c-36.23-36.127-86.226-58.465-141.44-58.465s-105.21 22.338-141.445 58.47l-63.995 63.995c-36.127 36.23-58.465 86.226-58.465 141.44s22.338 105.21 58.47 141.445l119.035 119.675 90.88-90.24-119.68-119.68c-12.934-13.061-20.925-31.037-20.925-50.88s7.991-37.819 20.931-50.886l63.994-63.994c12.991-13.088 30.989-21.19 50.88-21.19s37.889 8.102 50.876 21.186l261.124 259.844c13.124 13.094 21.244 31.199 21.244 51.2s-8.12 38.106-21.243 51.199l-64.001 64.001 90.24 90.24zM965.76 709.12l-64 64c-36.23 36.127-86.226 58.465-141.44 58.465s-105.21-22.338-141.445-58.47l-261.755-261.115c-36.127-36.23-58.465-86.226-58.465-141.44s22.338-105.21 58.47-141.445l63.995-63.995 90.88 90.88-64 64c-13.124 13.094-21.244 31.199-21.244 51.2s8.12 38.106 21.243 51.199l260.481 260.481c13.061 12.934 31.037 20.925 50.88 20.925s37.819-7.991 50.886-20.931l63.994-63.994c13.088-12.991 21.19-30.989 21.19-50.88s-8.102-37.889-21.186-50.876l-119.044-120.324 90.24-90.24 119.68 119.68c35.937 36.197 58.147 86.065 58.147 141.12s-22.21 104.923-58.158 141.132z" />
<glyph unicode="&#xe659;" glyph-name="location" d="M512 832c-212.077 0-384-171.923-384-384 0-256 378.24-640 378.24-640s389.76 384 389.76 640c0 212.077-171.923 384-384 384zM512 256c-106.039 0-192 85.961-192 192s85.961 192 192 192c106.039 0 192-85.961 192-192s-85.961-192-192-192z" />
<glyph unicode="&#xe65a;" glyph-name="lock-locked" d="M832 256v192c0 176.731-143.269 320-320 320s-320-143.269-320-320v-192h-64v-448h768v448h-64zM320 256v192c0 106.039 85.961 192 192 192s192-85.961 192-192v-192h-384z" />
<glyph unicode="&#xe65b;" glyph-name="lock-unlocked" d="M896 256v-448h-768v448h576v256c0 106.039-85.961 192-192 192s-192-85.961-192-192h-128c0 176.731 143.269 320 320 320s320-143.269 320-320v-256h64z" />
<glyph unicode="&#xe65c;" glyph-name="mail" d="M1024 704v0l-512-399.36-512 399.36h1024zM0 581.12v-645.12h1024v645.12l-512-398.080z" />
<glyph unicode="&#xe65d;" glyph-name="music" d="M1024 832v-832c-9.268-108.205-99.386-192.523-209.198-192.523-5.209 0-10.373 0.19-15.487 0.563-3.745-0.373-8.909-0.563-14.118-0.563-109.812 0-199.93 84.318-209.144 191.743 9.214 108.985 99.332 193.302 209.144 193.302 5.209 0 10.373-0.19 15.487-0.563 33.978-0.139 66.947-7.178 97.003-19.788l-1.687 403.828h-448v-576c-9.268-108.205-99.386-192.523-209.198-192.523-5.209 0-10.373 0.19-15.487 0.563-3.745-0.373-8.909-0.563-14.118-0.563-109.812 0-199.93 84.318-209.144 191.743 9.214 108.985 99.332 193.302 209.144 193.302 5.209 0 10.373-0.19 15.487-0.563 33.978-0.139 66.947-7.178 97.003-19.788l-1.687 659.828h704z" />
<glyph unicode="&#xe65e;" glyph-name="new" d="M448 832h128v-256h-128v256zM448-192h128v256h-128v-256zM768 384v-128h256v128h-256zM256 384h-256v-128h256v128zM919.040 636.8l-90.24 90.24-181.12-180.48 90.24-90.24zM104.96 3.2l90.24-90.24 181.12 181.12-90.88 90.24zM648.32 93.44l181.12-181.12 90.24 90.24-181.12 181.12zM104.96 636.8l180.48-181.12 90.88 90.88-181.12 180.48z" />
<glyph unicode="&#xe65f;" glyph-name="pencil" d="M159.36 107.52l140.16-140.16-235.52-95.36zM819.84 768l-627.84-627.84 140.16-140.16 627.84 627.84z" />
<glyph unicode="&#xe660;" glyph-name="play-round" d="M384 576l320-256-320-256v512zM1024 320c0-282.77-229.23-512-512-512s-512 229.23-512 512c0 282.77 229.23 512 512 512s512-229.23 512-512zM896 320c0 212.077-171.923 384-384 384s-384-171.923-384-384c0-212.077 171.923-384 384-384s384 171.923 384 384z" />
<glyph unicode="&#xe661;" glyph-name="play" d="M256-64v768l576-384-576-384z" />
<glyph unicode="&#xe662;" glyph-name="play-back" d="M192 320l576 384v-768z" />
<glyph unicode="&#xe663;" glyph-name="play-pause" d="M256 704h192v-768h-192v768zM576 704v-768h192v768h-192z" />
<glyph unicode="&#xe664;" glyph-name="play-stop" d="M132.48 704h768v-768h-768v768z" />
<glyph unicode="&#xe665;" glyph-name="play-rw" d="M896 704v-768l-384 384zM128 320l384-384v768z" />
<glyph unicode="&#xe666;" glyph-name="play-ff" d="M128 704l384-384-384-384v768zM896 320l-384 384v-768z" />
<glyph unicode="&#xe667;" glyph-name="play-skip-prev" d="M896-64l-320 320v-320l-320 320v-320h-128v768h128v-320l320 320v-320l320 320v-768z" />
<glyph unicode="&#xe668;" glyph-name="play-skip-next" d="M896 704v-768h-128v320l-320-320v320l-320-320v768l320-320v320l320-320v320h128z" />
<glyph unicode="&#xe669;" glyph-name="publish" d="M704 64c0-106.039-85.961-192-192-192s-192 85.961-192 192c0 106.039 85.961 192 192 192s192-85.961 192-192zM170.88 362.24l85.12-90.88c63.734 69.258 154.817 112.501 256 112.501s192.266-43.242 255.776-112.255l85.344 89.994c-84.984 92.397-206.462 150.089-341.414 150.089-134.647 0-255.879-57.431-340.538-149.134zM512 768c-202.097-1.065-383.887-87.122-511.611-224.217l84.731-91.303c106.217 115.362 257.978 187.385 426.56 187.385s320.343-72.023 426.19-186.977l86.13 90.473c-128.113 137.518-309.903 223.575-511.805 224.639z" />
<glyph unicode="&#xe66a;" glyph-name="save" d="M896 832h-896v-1024h1024v896zM832 448h-640v320h640v-320zM768 512h-128v192h128v-192z" />
<glyph unicode="&#xe66b;" glyph-name="search" d="M608 768c-194.315-0.118-351.792-157.669-351.792-352 0-71.671 21.42-138.338 58.207-193.951l-268.975-267.489 90.24-90.24 266.88 263.68c56.358-40.026 126.564-63.987 202.367-63.987 194.404 0 352 157.596 352 352 0 193.324-155.849 350.247-348.762 351.985zM608 192c-123.712 0-224 100.288-224 224s100.288 224 224 224c123.712 0 224-100.288 224-224s-100.288-224-224-224z" />
<glyph unicode="&#xe66c;" glyph-name="send" d="M448 192c-199.68-7.68-355.2-37.76-448-192v71.68c0 204.16 192 376.32 448 376.32h192v256l384-384-384-384v256h-192z" />
<glyph unicode="&#xe66d;" glyph-name="sfx" d="M192 512l320 320v-1024l-320 320h-192v384h192zM1024 469.12h-197.12l133.12 298.88h-192l-192-448h186.88l-186.88-448z" />
<glyph unicode="&#xe66e;" glyph-name="share" d="M1024 0c0-106.039-85.961-192-192-192s-192 85.961-192 192v32l-313.6 153.6c-34.664-34.286-81.852-55.973-134.094-57.592-106.345-0.008-192.306 85.954-192.306 191.992s85.961 192 192 192c54.369-2.906 103.26-24.238 141.035-57.805l306.965 153.805v32c0 106.039 85.961 192 192 192s192-85.961 192-192c0-106.039-85.961-192-192-192-54.369 2.906-103.26 24.238-141.035 57.805l-306.965-153.805v-64l313.6-153.6c32.75 35.606 79.562 57.839 131.568 57.839 3.247 0 6.475-0.087 9.679-0.258 102.311-1.036 185.207-84.583 185.207-187.492 0-1.579-0.020-3.153-0.058-4.722z" />
<glyph unicode="&#xe66f;" glyph-name="spinner" d="M512 704c212.077 0 384-171.923 384-384h128c0 282.77-229.23 512-512 512v-128z" />
<glyph unicode="&#xe670;" glyph-name="stack" d="M832 320h-640v192h640v-192zM835.84 768h-640v-192h640v192zM896 192v-256h-768v256h-128v-384h1024v384h-128zM832 256h-640v-192h640v192z" />
<glyph unicode="&#xe671;" glyph-name="graph" d="M192 0h-128v256h128v-256zM448 640h-128v-640h128v640zM704 448h-128v-448h128v448zM960 832h-128v-832h128v832zM0-64v-128h1024v128h-1024z" />
<glyph unicode="&#xe672;" glyph-name="statistics-alt" d="M192 128v-128h-128v128h128zM320 320v-320h128v320h-128zM576 192v-192h128v192h-128zM832 448v-448h128v448h-128zM0-192h1024v128h-1024v-128zM768 832l94.080-94.080-286.080-286.080-192 192-384-384 67.84-67.84 316.16 316.16 192-192 353.92 353.92 94.080-94.080v256h-256z" />
<glyph unicode="&#xe673;" glyph-name="statistics" d="M633.6 576h-249.6v249.6c125.828-26.324 223.276-123.772 249.234-247.517zM320 192c176.731 0 320 143.269 320 320h-320v320c-176.731 0-320-143.269-320-320s143.269-320 320-320zM448 0h128v128h-128v-128zM640 0h128v256h-128v-256zM960 640h-128v-640h128v640zM0-64v-128h1024v128h-1024z" />
<glyph unicode="&#xe674;" glyph-name="tag" d="M576 832l-576-571.52v-452.48h452.48l571.52 576zM224-64c-53.019 0-96 42.981-96 96s42.981 96 96 96c53.019 0 96-42.981 96-96s-42.981-96-96-96z" />
<glyph unicode="&#xe675;" glyph-name="tile" d="M0 256h448v-448h-448v448zM0 384h448v448h-448v-448zM576-192h448v448h-448v-448zM576 832v-448h448v448h-448z" />
<glyph unicode="&#xe676;" glyph-name="list" d="M0 64h1024v-256h-1024v256zM0 832v-256h1024v256h-1024zM0 192h1024v256h-1024v-256z" />
<glyph unicode="&#xe677;" glyph-name="tools" d="M800.64 172.8l-22.4-22.4-153.6 153.6 40.32 40.32c30.435-13.788 65.992-21.823 103.427-21.823 141.385 0 256 114.615 256 256 0 24.397-3.413 47.997-9.787 70.348l-158.28-159.245-138.24 37.12-36.48 137.6 157.44 157.44c-20.452 5.878-43.942 9.258-68.222 9.258-141.385 0-256-114.615-256-256 0-37.154 7.915-72.46 22.151-104.323l-40.969-38.695-180.48 179.84 91.52 92.16-135.68 133.12-271.36-271.36 133.12-133.12 91.52 89.6 180.48-181.12-405.12-405.12 128-128 405.12 405.12 153.6-153.6-22.4-22.4 226.56-229.12 133.12 138.24zM128-112c-26.51 0-48 21.49-48 48s21.49 48 48 48c26.51 0 48-21.49 48-48s-21.49-48-48-48z" />
<glyph unicode="&#xe678;" glyph-name="trash" d="M960 768v-128h-896v128h256v32c0 17.673 14.327 32 32 32h320c17.673 0 32-14.327 32-32v-32h256zM128 576h768l-64-768h-640zM618.88-64h98.56l34.56 512h-112zM448 448l13.44-512h96l18.56 512h-128zM272 448l34.56-512h98.56l-21.12 512h-112z" />
<glyph unicode="&#xe679;" glyph-name="triangle-down" d="M512 192l256 256h-512l256-256z" />
<glyph unicode="&#xe67a;" glyph-name="triangle-left" d="M384 320l256-256v512l-256-256z" />
<glyph unicode="&#xe67b;" glyph-name="triangle-right" d="M640 320l-256 256v-512l256 256z" />
<glyph unicode="&#xe67c;" glyph-name="triangle-up" d="M512 448l-256-256h512l-256 256z" />
<glyph unicode="&#xe67d;" glyph-name="triangle-up-down" d="M768 384h-512l256 256zM512 0l256 256h-512z" />
<glyph unicode="&#xe67e;" glyph-name="upload" d="M512 832c-282.77 0-512-229.23-512-512s229.23-512 512-512c282.77 0 512 229.23 512 512s-229.23 512-512 512zM640 320v-320h-256v320h-192l320 320 320-320h-192z" />
<glyph unicode="&#xe67f;" glyph-name="user-round" d="M512 832c-282.77 0-512-229.23-512-512s229.23-512 512-512c282.77 0 512 229.23 512 512s-229.23 512-512 512zM512 704c106.039 0 192-85.961 192-192 0-106.24-85.76-256-192-256s-192 149.76-192 256c0 106.039 85.961 192 192 192zM204.8-5.76c51.2 117.76 229.12 229.76 307.2 229.76s256-112 307.2-229.76c-80.008-75.504-188.184-121.914-307.2-121.914s-227.192 46.409-307.419 122.118z" />
<glyph unicode="&#xe680;" glyph-name="user" d="M231.68 551.68c0 154.993 125.647 280.64 280.64 280.64s280.64-125.647 280.64-280.64c0-154.88-128-374.4-280.32-374.4s-280.96 218.88-280.96 374.4zM896-91.52c-108.16 126.080-293.12 219.52-384 219.52s-275.84-95.36-384-222.080v-97.92h768v100.48z" />
<glyph unicode="&#xe681;" glyph-name="users" d="M69.76 522.24c1.080 135.967 111.553 245.773 247.673 245.773 0.903 0 1.804-0.005 2.705-0.014 0.626 0.010 1.527 0.014 2.43 0.014 136.119 0 246.592-109.806 247.672-245.671 0.001-138.343-111.999-330.343-250.239-330.343s-250.24 192-250.24 330.24zM640-14.080c-98.56 97.28-245.12 168.32-320 168.32s-221.44-71.040-320-168.32v-113.92h640v113.92zM634.24 522.24c-1.96-67.433-18.522-130.553-46.612-186.919 33.812-83.161 101.652-162.521 180.372-162.521 110.72 0 200.32 156.16 200.32 266.88-0.227 110.462-89.826 199.921-200.32 199.921-54.581 0-104.064-21.829-140.194-57.233 3.966-17.992 6.29-38.747 6.433-60.020zM768 138.24c-55.198-6.458-104.954-25.389-147.794-53.892 24.852-17.058 45.717-34.879 65.469-53.852l18.325-17.696v-103.68h320v90.88c-66.337 70.761-154.211 120.61-253.129 139.075z" />
<glyph unicode="&#xe682;" glyph-name="video-editor" d="M949.76 581.76l-885.76-129.92-28.16 188.16 887.040 128zM960 448v-572.16h-896v572.16h896zM640 166.4l-201.6 153.6v-305.28z" />
<glyph unicode="&#xe683;" glyph-name="video-player" d="M0 832v-1024h1024v1024h-1024zM896 64h-768v640h768v-640zM704 384l-320-192v384z" />
<glyph unicode="&#xe684;" glyph-name="volume-0" d="M448 768v-896l-256 256h-192v384h192z" />
<glyph unicode="&#xe685;" glyph-name="volume-1" d="M640 512v-384h-128v384h128zM0 512v-384h192l256-256v896l-256-256h-192z" />
<glyph unicode="&#xe686;" glyph-name="volume-2" d="M192 512l256 256v-896l-256 256h-192v384h192zM512 128h128v384h-128v-384zM704 576v-512h128v512h-128z" />
<glyph unicode="&#xe687;" glyph-name="volume-3" d="M512 512h128v-384h-128v384zM0 512v-384h192l256-256v896l-256-256h-192zM896 640v-640h128v640h-128zM704 64h128v512h-128v-512z" />
<glyph unicode="&#xe688;" glyph-name="volume-mute" d="M448 768v-896l-256 256h-192v384h192zM984.96 478.080l-90.88 90.88-158.080-158.72-158.080 158.72-90.88-90.88 158.72-158.080-158.72-158.080 90.88-90.88 158.080 158.72 158.080-158.72 90.88 90.88-158.72 158.080 158.72 158.080z" />
<glyph unicode="&#xe689;" glyph-name="zoomin" d="M512 320v-192h-128v192h-192v128h192v192h128v-192h192v-128h-192zM934.4-192l-217.6 217.6c-72.835-55.919-165.281-89.612-265.596-89.612-1.126 0-2.252 0.004-3.376 0.013-247.251-0.001-447.827 200.575-447.827 447.999s200.576 448 448 448c247.424 0 448-200.576 448-448 0.007-0.952 0.012-2.077 0.012-3.204 0-100.315-33.693-192.761-90.38-266.639l218.368-216.557-89.6-89.6zM448 64c176.731 0 320 143.269 320 320s-143.269 320-320 320c-176.731 0-320-143.269-320-320s143.269-320 320-320z" />
<glyph unicode="&#xe68a;" glyph-name="zoomout" d="M192 320v128h512v-128h-512zM934.4-192l-217.6 217.6c-72.835-55.919-165.281-89.612-265.596-89.612-1.126 0-2.252 0.004-3.376 0.013-247.251-0.001-447.827 200.575-447.827 447.999s200.576 448 448 448c247.424 0 448-200.576 448-448 0.007-0.952 0.012-2.077 0.012-3.204 0-100.315-33.693-192.761-90.38-266.639l218.368-216.557-89.6-89.6zM448 64c176.731 0 320 143.269 320 320s-143.269 320-320 320c-176.731 0-320-143.269-320-320s143.269-320 320-320z" />
<glyph unicode="&#xe68b;" glyph-name="shakr" d="M64 165.12c0.402-61.86 10.439-121.236 28.682-176.895-57.014 96.366-90.065 207.848-90.065 327.049 0 9.54 0.212 19.031 0.631 28.468-0.047 137.538 80.593 349.378 218.833 349.378 41.743-5.548 76.938-29.555 97.585-63.408-103.345-50.512-255.665-264.272-255.665-464.592zM688.64 512c0 64-64 116.48-174.72 116.48-200.32 0-411.52-256-411.52-503.040-0.85-9.723-1.335-21.037-1.335-32.464 0-35.551 4.69-70.007 13.486-102.782 1.585-7.617 5.122-16.817 9.864-25.249 6.253 132.411 61.739 250.233 148.244 337.155 101.558 120.039 248.599 198.897 414.202 209.806zM856.32 422.4c-41.125 10.771-88.337 16.955-136.994 16.955-169.413 0-321.316-74.971-424.34-193.547-69.634-77.473-119.538-172.819-141.96-278.327-0.911-6.166-1.029-8.73-1.029-11.321s0.118-5.155 0.348-7.686c-0.024 0.323-0.024 0.32-0.024 0.317 0-12.5 9.954-22.674 22.367-23.030l0.033-0.001c5.142 0.197 9.805 2.098 13.477 5.15 3.803 5.090 14.043 15.33 17.243 18.53 47.881 47.073 105.754 84.149 170.13 107.739 80.933 31.493 170.816 49.131 264.819 49.131 35.983 0 71.362-2.584 105.962-7.578 138.769-12.332 216.849 19.668 255.889 80.468s47.36 196.48-145.92 241.92z" />
<glyph unicode="&#xe68c;" glyph-name="info" d="M512 832c-282.77 0-512-229.23-512-512s229.23-512 512-512c282.77 0 512 229.23 512 512s-229.23 512-512 512zM448 640h128v-128h-128v128zM586.88 0h-138.88v300.8c-3.56 11.36-13.99 19.459-26.313 19.459-1.329 0-2.635-0.094-3.914-0.276l-33.773 0.017v128h141.44c3.704 0.922 7.956 1.451 12.331 1.451 29.337 0 53.12-23.783 53.12-53.12 0-4.375-0.529-8.627-1.527-12.695l0.076-383.636z" />
<glyph unicode="&#xe68d;" glyph-name="bullhorn" d="M1024-64l-448 179.2v-307.2h-192v768l640 256v-896zM128 512h-32c-53.019 0-96-42.981-96-96v-64c0-53.019 42.981-96 96-96h32v-64h192v384h-192v-64z" />
<glyph unicode="&#xe68e;" glyph-name="phone" d="M791.040-192s-151.040 55.68-442.24 348.8-348.8 442.24-348.8 442.24l232.96 232.96 232.32-232.96-133.12-133.12c43.52-51.2 94.72-107.52 156.8-168.96s118.4-113.28 169.6-156.16l133.12 133.12 232.32-232.96z" />
<glyph unicode="&#xe68f;" glyph-name="camera" d="M896 256c0-106.039-85.961-192-192-192s-192 85.961-192 192c0 106.039 85.961 192 192 192s192-85.961 192-192zM1024 512v-512c0-35.346-28.654-64-64-64h-896c-35.346 0-64 28.654-64 64v512c0 35.346 28.654 64 64 64v32c0 17.673 14.327 32 32 32h128c17.673 0 32-14.327 32-32v-32h256l64 128h256l64-128h64c35.346 0 64-28.654 64-64zM256 320c0 35.346-28.654 64-64 64h-94.72l-33.28 32.64v-384l30.72-32.64h97.28c35.346 0 64 28.654 64 64v256zM960 256c0 141.385-114.615 256-256 256s-256-114.615-256-256c0-141.385 114.615-256 256-256s256 114.615 256 256z" />
<glyph unicode="&#xe690;" glyph-name="car" d="M1024 407.040v82.56l-81.28 6.4c-42.24 98.56-110.72 208-225.28 208h-397.44c-112.64 0-197.76-109.44-239.36-208l-80.64-6.4v-82.56c6.061-11.194 16.248-19.502 28.471-22.96l-7.351-13.52c-13.296-24.064-21.121-52.755-21.121-83.273 0-0.199 0-0.399 0.001-0.598v-370.529c0-24.389 19.771-44.16 44.16-44.16 0 0 0 0 0 0h103.68c24.389 0 44.16 19.771 44.16 44.16v35.84c86.44-10.314 186.552-16.199 288.038-16.199 11.238 0 22.459 0.072 33.663 0.216 7.802-0.144 19.023-0.216 30.261-0.216 101.486 0 201.598 5.885 300.013 17.332l-11.975-37.613c0-24.389 19.771-44.16 44.16-44.16h103.68c0.001 0 0.003 0 0.005 0 24.389 0 44.16 19.771 44.16 44.16 0 0.225-0.002 0.45-0.005 0.674v370.526c-0.11 30.782-8.163 59.66-22.214 84.721l-6.586 12.559c12.552 3.538 22.739 11.846 28.678 22.794zM64 192v64l197.76-30.72 58.24-97.28c-93.83 4.664-181.193 27.774-260.043 65.755zM119.040 435.2c33.28 80.64 99.2 204.8 187.52 204.8h411.52c87.040 0 152.96-124.16 186.88-204.16 0 0-154.24 12.16-392.96 12.16s-392.96-12.16-392.96-12.16zM960 192c-74.807-36.226-162.17-59.336-254.407-63.937l54.727 95.937 199.68 32v-64z" />
<glyph unicode="&#xe691;" glyph-name="credit-card" d="M0-58.88h1024v506.88h-1024v-506.88zM128 185.6h192v-104.32h-192v104.32zM1024 704v-128h-1024v128h1024z" />
<glyph unicode="&#xe692;" glyph-name="cart" d="M800 64c53.019 0 96-42.981 96-96s-42.981-96-96-96c-53.019 0-96 42.981-96 96s42.981 96 96 96zM256-32c0-53.019 42.981-96 96-96s96 42.981 96 96c0 53.019-42.981 96-96 96s-96-42.981-96-96zM903.68 192h-551.68l-120.32 512h-231.68v-128h128l120.32-512h622.72zM307.2 704l96-448h512l108.8 448h-716.8z" />
<glyph unicode="&#xe693;" glyph-name="checklist" d="M90.24 474.24l-90.24 90.88 90.24 90.24 90.88-90.24 181.12 181.12 90.24-90.88-271.36-271.36zM362.24 298.24l-181.12-181.12-90.88 90.24-90.24-90.24 181.12-181.12 271.36 271.36zM368 26.88l-26.88-26.88h682.88v192h-490.88zM533.12 640l-192-192h682.88v192h-490.88z" />
<glyph unicode="&#xe694;" glyph-name="dollar-round" d="M512 832c-281.6 0-512-230.4-512-512s230.4-512 512-512 512 230.4 512 512-230.4 512-512 512zM512-64c-211.2 0-384 172.8-384 384s172.8 384 384 384 384-172.8 384-384-172.8-384-384-384zM467.2 428.8c0 25.6 25.6 38.4 51.2 38.4 57.6 0 108.8-44.8 108.8-44.8l51.2 102.4c0 0-44.8 44.8-128 57.6v57.6h-76.8v-64c-76.8-19.2-134.4-70.4-134.4-153.6 0-153.6 230.4-153.6 230.4-211.2 0-32-25.6-38.4-51.2-38.4-64 0-121.6 51.2-121.6 51.2l-64-96c0 0 51.2-57.6 140.8-70.4v-64h76.8v64c89.6 12.8 140.8 76.8 140.8 153.6 0 160-224 153.6-224 217.6z" />
<glyph unicode="&#xe695;" glyph-name="document" d="M896 576h-256v256zM576 512h320v-704h-768v1024h448v-320zM768 64h-512v-128h512v128zM768 256h-512v-128h512v128zM256 448v-128h512v128h-512z" />
<glyph unicode="&#xe696;" glyph-name="brush" d="M448 39.68c-11.52-120.96-120.96-167.68-224-167.68-3.122-0.144-6.782-0.226-10.461-0.226-91.994 0-171.995 51.348-212.906 126.947 17.927 1.279 113.927-10.881 127.367 65.279 6.096 79.844 71.658 142.515 152.174 143.998 3.748 0.298 7.943 0.466 12.177 0.466 86.245 0 156.16-69.915 156.16-156.16 0-4.443-0.186-8.844-0.549-13.193zM890.88 738.56l-512-512 133.12-131.84 512 512z" />
<glyph unicode="&#xe697;" glyph-name="placeholder-add" d="M128 128h-128v192h128v-192zM128 64h-128v-256h192v128h-64v128zM256-192h192v128h-192v-128zM512 832h-192v-128h192v128zM128 576h-128v-192h128v192zM128 704h128v128h-256v-192h128v64zM768 832h-192v-128h192v128zM896 320h128v192h-128v-192zM832 832v-128h64v-128h128v256h-192zM896 64h128v192h-128v-192zM512-192h192v128h-192v-128zM896-64h-128v-128h256v192h-128v-64zM576 64v192h192v128h-192v192h-128v-192h-192v-128h192v-192h128z" />
<glyph unicode="&#xe698;" glyph-name="translate" d="M512 0v-128c-155.652 0.292-292.643 79.917-372.727 200.585l-75.273-72.585v256h256l-88.32-88.32c55.082-100.301 159.833-167.251 280.26-167.68zM792.32 472.32l-88.32-88.32h256v256l-74.24-74.24c-81.117 122.323-218.108 201.948-373.716 202.24l-0.044-128c120.487-0.429 225.238-67.379 279.485-166.023zM326.4 832l185.6-512h-137.6l-33.28 107.52h-170.88l-32.64-107.52h-137.6l185.6 512h140.8zM309.76 527.36l-30.72 99.84c-10.24 32-23.040 88.32-23.040 88.32v0s-12.8-56.32-23.040-88.32l-31.36-99.84h108.16zM960 147.84v172.16h-103.68v-512h103.68v250.24h64v89.6h-64zM576 192h153.6c-15.36-93.44-72.32-165.12-186.88-234.24l50.56-85.76c143.007 73.82 239.090 220.534 239.090 389.69 0 6.327-0.134 12.623-0.401 18.884l-255.97-0.894v-87.68z" />
<glyph unicode="&#xe900;" glyph-name="chevron-small-bottom" d="M512 71.040l320 312.96-90.24 90.24-229.76-222.080-229.76 222.080-90.24-90.24 320-312.96z" />
<glyph unicode="&#xe901;" glyph-name="cloud" d="M832 384s0 0 0 0c-1.915 175.268-144.442 316.611-319.982 316.611-155.385 0-284.903-110.75-313.923-257.62-113.841-29.889-196.727-130.763-196.727-250.995 0-140.904 113.837-255.22 254.558-255.996h544.074c4.788-0.364 10.37-0.571 16-0.571 124.027 0 224.571 100.544 224.571 224.571 0 118.397-91.622 215.394-207.832 223.956z" />
<glyph unicode="&#xe902;" glyph-name="cloud-check" d="M832 384s0 0 0 0c-1.915 175.268-144.442 316.611-319.982 316.611-155.385 0-284.903-110.75-313.923-257.62-113.841-29.889-196.727-130.763-196.727-250.995 0-140.904 113.837-255.22 254.558-255.996h544.074c4.788-0.364 10.37-0.571 16-0.571 124.027 0 224.571 100.544 224.571 224.571 0 118.397-91.622 215.394-207.832 223.956zM448 64l-160 160 64 64 96-96 224 224 64-64z" />
<glyph unicode="&#xe903;" glyph-name="cloud-cross" d="M832 384s0 0 0 0c-1.915 175.268-144.442 316.611-319.982 316.611-155.385 0-284.903-110.75-313.923-257.62-113.841-29.889-196.727-130.763-196.727-250.995 0-140.904 113.837-255.22 254.558-255.996h544.074c4.788-0.364 10.37-0.571 16-0.571 124.027 0 224.571 100.544 224.571 224.571 0 118.397-91.622 215.394-207.832 223.956zM704 128l-64-64-128 128-128-128-64 64 128 128-128 128 64 64 128-128 128 128 64-64-128-128z" />
<glyph unicode="&#xe904;" glyph-name="cloud-upload" d="M832 384s0 0 0 0c-1.915 175.268-144.442 316.611-319.982 316.611-155.385 0-284.903-110.75-313.923-257.62-113.841-29.889-196.727-130.763-196.727-250.995 0-140.904 113.837-255.22 254.558-255.996h192.074v192h-192l256 256 256-256h-192v-192h224c4.788-0.364 10.37-0.571 16-0.571 124.027 0 224.571 100.544 224.571 224.571 0 118.397-91.622 215.394-207.832 223.956z" />
<glyph unicode="&#xe905;" glyph-name="coupon" d="M960 128c0 35.346 28.654 64 64 64v64c-35.346 0-64 28.654-64 64s28.654 64 64 64v64c-35.346 0-64 28.654-64 64s28.654 64 64 64v128h-1024v-128c35.346 0 64-28.654 64-64s-28.654-64-64-64v-64c35.346 0 64-28.654 64-64s-28.654-64-64-64v-64c35.346 0 64-28.654 64-64s-28.654-64-64-64v-128h1024v128c-35.346 0-64 28.654-64 64zM832 64h-640v512h640v-512z" />
<glyph unicode="&#xe906;" glyph-name="currency-dollar" d="M512 832c-282.77 0-512-229.23-512-512s229.23-512 512-512c282.77 0 512 229.23 512 512s-229.23 512-512 512zM512-64c-212.077 0-384 171.923-384 384s171.923 384 384 384c212.077 0 384-171.923 384-384s-171.923-384-384-384zM691.84 216.32c-0.371-79.807-61.548-145.21-139.565-152.276l-0.595-64.044h-76.16v64c-55.854 7.669-104.892 32.354-142.819 68.574l64.099 93.346c32.019-28.674 73.311-47.595 118.867-51.78 3.36-0.582 6.287-0.881 9.284-0.881 23.101 0 42.058 17.738 43.997 40.336 0.011 56.484-227.829 64.164-227.829 211.364 0 0.103 0 0.225 0 0.347 0 77.682 58.397 141.725 133.685 150.624l0.715 64.069h76.16v-64c49.521-4.009 93.749-23.936 128.222-54.594l-52.062-99.646c-29.989 25.147-68.229 41.364-110.144 44.13-2.828 0.42-5.421 0.643-8.067 0.643-23.182 0-42.366-17.119-45.6-39.404-0.030-60.408 227.81-55.928 227.81-210.808z" />
<glyph unicode="&#xe907;" glyph-name="currency-won" d="M512 832c-282.77 0-512-229.23-512-512s229.23-512 512-512c282.77 0 512 229.23 512 512s-229.23 512-512 512zM512-64c-212.077 0-384 171.923-384 384s171.923 384 384 384c212.077 0 384-171.923 384-384s-171.923-384-384-384zM663.68 552.96l-23.68-168.96h-48l-23.040 168.96h-104.32l-23.040-168.96h-51.2l-21.12 168.96h-110.080l28.16-168.96h-31.36v-84.48h45.44l42.88-256h128l39.68 256h10.88l38.4-256h128l42.88 256h35.84v84.48h-22.4l28.16 167.040h-110.080zM420.48 232.96c-3.2-24.32-3.84-57.6-3.84-57.6h-3.84c0.603 8.614 0.947 18.667 0.947 28.8s-0.344 20.186-1.020 30.148l-8.247 62.652h24.96zM624 232.96c-2.038-16.95-3.201-36.579-3.201-56.48 0-0.394 0-0.788 0.001-1.181v0.061s0 32.64-4.48 57.6l-8.96 64h24.96z" />
<glyph unicode="&#xe908;" glyph-name="currency-yen" d="M512 832c-282.77 0-512-229.23-512-512s229.23-512 512-512c282.77 0 512 229.23 512 512s-229.23 512-512 512zM512-64c-212.077 0-384 171.923-384 384s171.923 384 384 384c212.077 0 384-171.923 384-384s-171.923-384-384-384zM753.28 576l-149.12-256h147.84v-64h-176v-64h175.36v-64h-175.36v-128h-128v128h-176v64h176v64h-176v64h147.84l-149.12 256h148.48l60.16-122.88c17.28-35.2 32.64-74.24 32.64-74.24v0s14.72 38.4 32 73.6l60.8 123.52h148.48z" />
<glyph unicode="&#xe909;" glyph-name="device-desktop" d="M992 768h-960c-17.673 0-32-14.327-32-32v-704c0-17.673 14.327-32 32-32h312.32l-24.32-128h384l-23.68 128h311.68c17.673 0 32 14.327 32 32v704c0 17.673-14.327 32-32 32zM960 192h-896v512h896v-512z" />
<glyph unicode="&#xe90a;" glyph-name="device-laptop" d="M960 64v608c0 17.673-14.327 32-32 32h-832c-17.673 0-32-14.327-32-32v-608h-64v-96c0-17.673 14.327-32 32-32h960c17.673 0 32 14.327 32 32v96h-64zM128 640h768v-512h-768v512zM608 0h-192c-17.673 0-32 14.327-32 32h256c0-17.673-14.327-32-32-32z" />
<glyph unicode="&#xe90b;" glyph-name="device-mobile" d="M736 768h-448c-17.673 0-32-14.327-32-32v-832c0-17.673 14.327-32 32-32h448c17.673 0 32 14.327 32 32v832c0 17.673-14.327 32-32 32zM429.44 704h178.56c17.673 0 32-14.327 32-32s-14.327-32-32-32h-178.56c-17.673 0-32 14.327-32 32s14.327 32 32 32zM512-80c-26.51 0-48 21.49-48 48s21.49 48 48 48c26.51 0 48-21.49 48-48s-21.49-48-48-48zM704 64h-384v512h384v-512z" />
<glyph unicode="&#xe90c;" glyph-name="device-tablet" d="M864 832h-704c-17.673 0-32-14.327-32-32v-960c0-17.673 14.327-32 32-32h704c17.673 0 32 14.327 32 32v960c0 17.673-14.327 32-32 32zM512-144c-26.51 0-48 21.49-48 48s21.49 48 48 48c26.51 0 48-21.49 48-48s-21.49-48-48-48zM832 0h-640v704h640v-704z" />
<glyph unicode="&#xe90d;" glyph-name="device-tv" d="M1024 704h-1024v-704h96l-32-64h64l64 64h640l64-64h64l-32 64h96v704zM960 128h-896v512h896v-512z" />
<glyph unicode="&#xe90e;" glyph-name="draggable-horizontal" d="M192 128h640v-128h-640v128zM192 256h640v128h-640v-128zM192 640v-128h640v128h-640z" />
<glyph unicode="&#xe90f;" glyph-name="eye-closed" d="M684.8 402.56l256 256-90.24 90.88-106.24-109.44c-66.535 39.637-146.591 63.327-232.129 63.999-357.951 0.001-512.191-383.999-512.191-383.999 43.539-96.271 102.633-178.108 174.954-246.023l-92.394-92.537 90.24-90.24 106.88 108.8 56.32 56.32 93.44 90.88zM245.76 146.56c-31.892 48.919-50.86 108.794-50.86 173.1 0 176.731 143.269 320 320 320 64.305 0 124.181-18.968 174.336-51.614l-94.676-95.246c-24.118 11.949-52.492 19.016-82.499 19.2-106.1 0-192.061-85.961-192.061-192 0.184-30.068 7.251-58.442 19.702-83.685zM1024 320s-154.24-384-512-384c-40.467 0.020-79.726 5.155-117.178 14.791l58.938 54.969c17.358-3.34 37.321-5.251 57.731-5.251 176.731 0 320 143.269 320 320 0 20.41-1.911 40.373-5.563 59.721l102.072 99.77c36.581-46.324 68.687-98.946 94.082-155.246z" />
<glyph unicode="&#xe910;" glyph-name="link-round" d="M512 832c-282.77 0-512-229.23-512-512s229.23-512 512-512c282.77 0 512 229.23 512 512s-229.23 512-512 512zM608.64 199.68l-160.64-163.2c-22.925-21.885-54.050-35.352-88.32-35.352s-65.395 13.468-88.37 35.4l-42.83 40.273c-22.625 23.069-36.59 54.704-36.59 89.6s13.964 66.531 36.61 89.621l74.86 72.299 56.32-56.32-74.24-74.88c-8.301-8.138-13.447-19.468-13.447-32s5.146-23.862 13.439-31.993l40.327-40.327c8.138-8.301 19.468-13.447 32-13.447s23.862 5.146 31.993 13.439l162.567 163.207c8.301 8.138 13.447 19.468 13.447 32s-5.146 23.862-13.439 31.993l-40.327 40.327 56.32 56.32 40.32-40.32c21.885-22.925 35.352-54.050 35.352-88.32s-13.468-65.395-35.4-88.37zM795.52 384l-74.88-72.32-56.32 56.32 74.88 74.88c8.301 8.138 13.447 19.468 13.447 32s-5.146 23.862-13.439 31.993l-40.327 40.327c-8.138 8.301-19.468 13.447-32 13.447s-23.862-5.146-31.993-13.439l-163.207-163.207c-8.301-8.138-13.447-19.468-13.447-32s5.146-23.862 13.439-31.993l40.327-39.687-56.32-56.32-40.32 39.68c-21.885 22.925-35.352 54.050-35.352 88.32s13.468 65.395 35.4 88.37l160.593 163.15c22.925 21.885 54.050 35.352 88.32 35.352s65.395-13.468 88.37-35.4l42.83-40.273c22.625-23.069 36.59-54.704 36.59-89.6s-13.964-66.531-36.61-89.621z" />
<glyph unicode="&#xe911;" glyph-name="outlink" d="M256 64h448v-128h-576v576h128v-448zM896 704v-576h-576v576h576zM782.72 590.72h-243.84l97.28-97.92-195.2-195.2 48.64-48.64 195.2 195.2 97.92-97.92v244.48z" />
<glyph unicode="&#xe912;" glyph-name="palette" d="M666.88 139.52l-106.88 106.88 349.44 364.16c-97.735 104.887-236.668 170.28-390.874 170.28-2.309 0-4.614-0.015-6.916-0.044-282.53 0.003-511.65-204.797-511.65-460.797s229.12-460.8 512-460.8 512 204.8 512 460.8c-0.164 57.539-11.912 112.289-33.033 162.103zM597.12 676.48c56.546-0.010 102.382-45.852 102.382-102.4 0-56.554-45.846-102.4-102.4-102.4s-102.4 45.846-102.4 102.4c0 0.675 0.007 1.349 0.020 2.021 1.077 55.621 46.502 100.379 102.38 100.379 0.006 0 0.013 0 0.019 0zM344.32 644.48c56.554 0 102.4-45.846 102.4-102.4s-45.846-102.4-102.4-102.4c-56.554 0-102.4 45.846-102.4 102.4s45.846 102.4 102.4 102.4zM203.52 225.28c-56.554 0-102.4 45.846-102.4 102.4s45.846 102.4 102.4 102.4c56.554 0 102.4-45.846 102.4-102.4s-45.846-102.4-102.4-102.4zM435.2-38.4c-2.768-0.143-6.010-0.224-9.271-0.224-73.352 0-137.097 41.134-169.426 101.593 14.217 1.031 91.017-8.569 101.897 53.511 5.385 63.295 57.537 112.781 121.487 113.918 2.074 0.109 4.371 0.17 6.681 0.17 70.692 0 128-57.308 128-128 0-2.311-0.061-4.607-0.182-6.887-9.587-95.682-96.627-134.082-179.187-134.082z" />
<glyph unicode="&#xe913;" glyph-name="share-alt" d="M896 448v-640h-768v640h256v-128h-128v-384h512v384h-128v128h256zM448 128h128v448h192l-256 256-256-256h192v-448z" />
<glyph unicode="&#xe914;" glyph-name="translate-alt" d="M512 0v-128c-155.652 0.292-292.643 79.917-372.727 200.585l-75.273-72.585v256h256l-88.32-88.32c55.082-100.301 159.833-167.251 280.26-167.68zM792.32 472.32l-88.32-88.32h256v256l-74.24-74.24c-81.117 122.323-218.108 201.948-373.716 202.24l-0.044-128c120.487-0.429 225.238-67.379 279.485-166.023zM326.4 832l185.6-512h-137.6l-33.28 107.52h-170.88l-32.64-107.52h-137.6l185.6 512h140.8zM309.76 527.36l-30.72 99.84c-10.24 32-23.040 88.32-23.040 88.32v0s-12.8-56.32-23.040-88.32l-31.36-99.84h108.16zM1024-6.4c0-81.28-44.8-164.48-192-185.6l-46.080 72.96c115.2 12.8 149.76 70.4 149.76 117.12 0 0.036 0 0.078 0 0.12 0 31.447-19.385 58.366-46.857 69.46-27.767-66.527-68.752-122.715-120.252-167.021 3.269-14.56 7.749-28 12.229-41.44l-76.8-23.68c0 5.76-3.84 12.8-6.4 19.84-24.723-11.904-53.674-19.147-84.242-19.836-1.419-0.067-2.803-0.102-4.195-0.102-44.183 0-80 35.817-80 80 0 3.872 0.275 7.68 0.807 11.405 8.72 85.931 63.249 157.74 138.611 190.983 1.499 22.35 1.499 44.11 6.619 64.59h-9.6c-32.639 1.257-63.478 4.697-93.595 10.207l3.995 73.633c27.050-5.4 58.762-9.075 91.119-10.211l15.121-0.029 3.84 64h90.24c-3.84-16-8.32-26.24-8.32-35.84s-3.2-16-4.48-23.68c70.264 1.207 137.888 9.771 202.968 24.955l-6.488-81.275c-60.655-9.941-132.426-16.836-205.357-19.134l-5.843-42.306c24.16 5.702 51.899 8.971 80.403 8.971 0.984 0 1.966-0.004 2.948-0.012l-0.151 0.001c1.843 8.995 3.428 20.157 4.401 31.494l84.559-18.694-9.6-26.88c64.432-17.788 111.211-75.24 112.637-143.84zM679.68-64c-4.947 28.712-8.61 63.088-10.175 98.009-30.096-18.117-51.264-49.361-57.553-85.704-0.36-1.979-0.501-3.351-0.501-4.756 0-11.311 9.169-20.48 20.48-20.48 0.813 0 1.616 0.047 2.404 0.14 16.689 0.767 32.23 5.417 45.867 13.060zM807.68 82.56c-23.201-1.051-45.096-4.721-66.001-10.732 2.395-27.717 4.244-55.020 7.481-81.895 24.141 28.431 44.693 57.163 60.235 88.803z" />
<glyph unicode="&#xe915;" glyph-name="upload-alt" d="M512 704l384-384h-256v-384h-256v384h-256z" />
<glyph unicode="&#xe916;" glyph-name="arrow-horizontal" d="M320 256v-192l-256 256 256 256v-192h384v192l256-256-256-256v192h-384z" />
<glyph unicode="&#xe917;" glyph-name="arrow-vertical" d="M576 128h192l-256-256-256 256h192v384h-192l256 256 256-256h-192v-384z" />
<glyph unicode="&#xe918;" glyph-name="check-round-filled" d="M512 832c-281.6 0-512-230.4-512-512s230.4-512 512-512 512 230.4 512 512c0 281.6-230.4 512-512 512zM422.4 19.2l-275.2 268.8 89.6 89.6 179.2-179.2 364.8 364.8 89.6-89.6-448-454.4z" />
<glyph unicode="&#xe919;" glyph-name="cross-round-filled" d="M512 832c-281.6 0-512-230.4-512-512s230.4-512 512-512 512 230.4 512 512c0 281.6-230.4 512-512 512zM691.2 51.2l-179.2 179.2-179.2-179.2-89.6 89.6 179.2 179.2-179.2 179.2 89.6 89.6 179.2-179.2 179.2 179.2 89.6-89.6-179.2-179.2 179.2-179.2-89.6-89.6z" />
<glyph unicode="&#xe91a;" glyph-name="fit-horizontal" d="M384 256v-192l-256 256 256 256v-192h256v192l256-256-256-256v192h-256zM0 832v-1024h1024v1024h-1024zM896-64h-768v768h768v-768z" />
<glyph unicode="&#xe91b;" glyph-name="fit-vertical" d="M448 448h-192l256 256 256-256h-192v-256h192l-256-256-256 256h192v256zM1024 832h-1024v-1024h1024v1024zM128-64v768h768v-768h-768z" />
<glyph unicode="&#xe91c;" glyph-name="rotate-ccw" d="M64-192h646.4v576h-646.4v-576zM192 256h390.4v-320h-390.4v320zM966.4 320h-128c0 140.8-115.2 256-256 256v-128l-192 192 192 192v-128c211.2 0 384-172.8 384-384z" />
<glyph unicode="&#xe91d;" glyph-name="rotate-cw" d="M320 384v-576h646.4v576h-646.4zM838.4-64h-390.4v320h390.4v-320zM448 576c-140.8 0-256-115.2-256-256h-128c0 211.2 172.8 384 384 384v128l192-192-192-192v128z" />
<glyph unicode="&#xe91e;" glyph-name="undo" d="M211.2 204.8l-121.6-44.8c12.8-38.4 32-76.8 57.6-108.8l108.8 83.2c-19.2 19.2-32 44.8-44.8 70.4zM512 768c-121.6 0-236.8-51.2-313.6-134.4l-134.4 134.4v-384h384l-160 160c57.6 57.6 134.4 96 224 96 179.2 0 320-140.8 320-320s-140.8-320-320-320c-32 0-57.6 6.4-89.6 12.8l-38.4-121.6c44.8-12.8 83.2-19.2 128-19.2 249.6 0 448 198.4 448 448s-198.4 448-448 448zM198.4 6.4c38.4-38.4 83.2-64 128-89.6l51.2 115.2c-32 12.8-64 38.4-89.6 64l-89.6-89.6z" />
</font>
</defs>
</svg>
